<?xml version="1.0" encoding="UTF-8" standalone="no"?>
<!DOCTYPE svg PUBLIC "-//W3C//DTD SVG 1.1//EN"
 "http://www.w3.org/Graphics/SVG/1.1/DTD/svg11.dtd">
<!-- Generated by graphviz version 2.40.1 (20161225.0304)
 -->
<!-- Title: %0 Pages: 1 -->
<svg width="1826pt" height="260pt"
 viewBox="0.00 0.00 1826.46 260.00" xmlns="http://www.w3.org/2000/svg" xmlns:xlink="http://www.w3.org/1999/xlink">
<g id="graph0" class="graph" transform="scale(1 1) rotate(0) translate(4 256)">
<title>%0</title>
<polygon fill="#ffffff" stroke="transparent" points="-4,4 -4,-256 1822.4627,-256 1822.4627,4 -4,4"/>
<!-- maxime -->
<g id="node1" class="node">
<title>maxime</title>
<ellipse fill="none" stroke="#000000" cx="82.4627" cy="-234" rx="42.2932" ry="18"/>
<text text-anchor="middle" x="82.4627" y="-229.8" font-family="Times,serif" font-size="14.00" fill="#000000">maxime</text>
</g>
<!-- catherine -->
<g id="node3" class="node">
<title>catherine</title>
<ellipse fill="none" stroke="#000000" cx="67.4627" cy="-162" rx="46.345" ry="18"/>
<text text-anchor="middle" x="67.4627" y="-157.8" font-family="Times,serif" font-size="14.00" fill="#000000">catherine</text>
</g>
<!-- maxime&#45;&gt;catherine -->
<g id="edge1" class="edge">
<title>maxime&#45;&gt;catherine</title>
<path fill="none" stroke="#000000" d="M78.6776,-215.8314C77.0733,-208.131 75.1657,-198.9743 73.3828,-190.4166"/>
<polygon fill="#000000" stroke="#000000" points="76.7648,-189.4892 71.2988,-180.4133 69.912,-190.9169 76.7648,-189.4892"/>
</g>
<!-- olivia -->
<g id="node4" class="node">
<title>olivia</title>
<ellipse fill="none" stroke="#000000" cx="244.4627" cy="-162" rx="33.0624" ry="18"/>
<text text-anchor="middle" x="244.4627" y="-157.8" font-family="Times,serif" font-size="14.00" fill="#000000">olivia</text>
</g>
<!-- maxime&#45;&gt;olivia -->
<g id="edge2" class="edge">
<title>maxime&#45;&gt;olivia</title>
<path fill="none" stroke="#000000" d="M111.7997,-220.9613C139.2426,-208.7645 180.2644,-190.5326 209.4173,-177.5757"/>
<polygon fill="#000000" stroke="#000000" points="211.0956,-180.66 218.8122,-173.4002 208.2525,-174.2633 211.0956,-180.66"/>
</g>
<!-- emmanuelle -->
<g id="node2" class="node">
<title>emmanuelle</title>
<ellipse fill="none" stroke="#000000" cx="229.4627" cy="-234" rx="58.4648" ry="18"/>
<text text-anchor="middle" x="229.4627" y="-229.8" font-family="Times,serif" font-size="14.00" fill="#000000">emmanuelle</text>
</g>
<!-- emmanuelle&#45;&gt;catherine -->
<g id="edge3" class="edge">
<title>emmanuelle&#45;&gt;catherine</title>
<path fill="none" stroke="#000000" d="M195.8962,-219.0816C170.1963,-207.6594 134.6601,-191.8655 107.4814,-179.7861"/>
<polygon fill="#000000" stroke="#000000" points="108.806,-176.5447 98.2463,-175.6816 105.9629,-182.9414 108.806,-176.5447"/>
</g>
<!-- emmanuelle&#45;&gt;olivia -->
<g id="edge4" class="edge">
<title>emmanuelle&#45;&gt;olivia</title>
<path fill="none" stroke="#000000" d="M233.2478,-215.8314C234.8947,-207.9266 236.8612,-198.4872 238.6843,-189.7365"/>
<polygon fill="#000000" stroke="#000000" points="242.1175,-190.4171 240.7307,-179.9134 235.2647,-188.9894 242.1175,-190.4171"/>
</g>
<!-- claude -->
<g id="node6" class="node">
<title>claude</title>
<ellipse fill="none" stroke="#000000" cx="114.4627" cy="-90" rx="36.4761" ry="18"/>
<text text-anchor="middle" x="114.4627" y="-85.8" font-family="Times,serif" font-size="14.00" fill="#000000">claude</text>
</g>
<!-- catherine&#45;&gt;claude -->
<g id="edge6" class="edge">
<title>catherine&#45;&gt;claude</title>
<path fill="none" stroke="#000000" d="M79.0807,-144.2022C84.6427,-135.6817 91.4098,-125.315 97.5306,-115.9385"/>
<polygon fill="#000000" stroke="#000000" points="100.6051,-117.6316 103.1405,-107.3446 94.7434,-113.8052 100.6051,-117.6316"/>
</g>
<!-- aure -->
<g id="node8" class="node">
<title>aure</title>
<ellipse fill="none" stroke="#000000" cx="220.4627" cy="-90" rx="27.8073" ry="18"/>
<text text-anchor="middle" x="220.4627" y="-85.8" font-family="Times,serif" font-size="14.00" fill="#000000">aure</text>
</g>
<!-- olivia&#45;&gt;aure -->
<g id="edge9" class="edge">
<title>olivia&#45;&gt;aure</title>
<path fill="none" stroke="#000000" d="M238.5301,-144.2022C235.8272,-136.0936 232.567,-126.3129 229.5643,-117.3049"/>
<polygon fill="#000000" stroke="#000000" points="232.8098,-115.973 226.327,-107.593 226.169,-118.1867 232.8098,-115.973"/>
</g>
<!-- charlotte -->
<g id="node9" class="node">
<title>charlotte</title>
<ellipse fill="none" stroke="#000000" cx="485.4627" cy="-90" rx="44.6395" ry="18"/>
<text text-anchor="middle" x="485.4627" y="-85.8" font-family="Times,serif" font-size="14.00" fill="#000000">charlotte</text>
</g>
<!-- olivia&#45;&gt;charlotte -->
<g id="edge10" class="edge">
<title>olivia&#45;&gt;charlotte</title>
<path fill="none" stroke="#000000" d="M274.0464,-153.8576C311.005,-143.5934 376.1228,-125.2058 431.4627,-108 434.7714,-106.9713 438.1867,-105.8867 441.6174,-104.7809"/>
<polygon fill="#000000" stroke="#000000" points="442.8302,-108.0668 451.2507,-101.6368 440.6583,-101.4123 442.8302,-108.0668"/>
</g>
<!-- remy -->
<g id="node5" class="node">
<title>remy</title>
<ellipse fill="none" stroke="#000000" cx="162.4627" cy="-162" rx="30.7577" ry="18"/>
<text text-anchor="middle" x="162.4627" y="-157.8" font-family="Times,serif" font-size="14.00" fill="#000000">remy</text>
</g>
<!-- remy&#45;&gt;claude -->
<g id="edge5" class="edge">
<title>remy&#45;&gt;claude</title>
<path fill="none" stroke="#000000" d="M151.0874,-144.937C145.314,-136.277 138.1781,-125.5731 131.7432,-115.9207"/>
<polygon fill="#000000" stroke="#000000" points="134.549,-113.8197 126.0898,-107.4407 128.7247,-117.7027 134.549,-113.8197"/>
</g>
<!-- yves -->
<g id="node7" class="node">
<title>yves</title>
<ellipse fill="none" stroke="#000000" cx="445.4627" cy="-162" rx="28.9735" ry="18"/>
<text text-anchor="middle" x="445.4627" y="-157.8" font-family="Times,serif" font-size="14.00" fill="#000000">yves</text>
</g>
<!-- yves&#45;&gt;aure -->
<g id="edge7" class="edge">
<title>yves&#45;&gt;aure</title>
<path fill="none" stroke="#000000" d="M418.3429,-155.9287C381.1677,-147.2304 312.597,-129.8353 256.4627,-108 254.6555,-107.297 252.8171,-106.535 250.9755,-105.7349"/>
<polygon fill="#000000" stroke="#000000" points="252.415,-102.5444 241.8703,-101.515 249.4715,-108.8955 252.415,-102.5444"/>
</g>
<!-- yves&#45;&gt;charlotte -->
<g id="edge8" class="edge">
<title>yves&#45;&gt;charlotte</title>
<path fill="none" stroke="#000000" d="M454.9421,-144.937C459.6204,-136.5161 465.3723,-126.1627 470.6168,-116.7226"/>
<polygon fill="#000000" stroke="#000000" points="473.8366,-118.1338 475.6336,-107.6924 467.7175,-114.7342 473.8366,-118.1338"/>
</g>
<!-- samuel -->
<g id="node11" class="node">
<title>samuel</title>
<ellipse fill="none" stroke="#000000" cx="308.4627" cy="-18" rx="38.2799" ry="18"/>
<text text-anchor="middle" x="308.4627" y="-13.8" font-family="Times,serif" font-size="14.00" fill="#000000">samuel</text>
</g>
<!-- aure&#45;&gt;samuel -->
<g id="edge16" class="edge">
<title>aure&#45;&gt;samuel</title>
<path fill="none" stroke="#000000" d="M237.8487,-75.7751C250.2427,-65.6345 267.1496,-51.8016 281.3127,-40.2136"/>
<polygon fill="#000000" stroke="#000000" points="283.7566,-42.7363 289.2798,-33.6951 279.3239,-37.3186 283.7566,-42.7363"/>
</g>
<!-- hugo -->
<g id="node12" class="node">
<title>hugo</title>
<ellipse fill="none" stroke="#000000" cx="395.4627" cy="-18" rx="30.2015" ry="18"/>
<text text-anchor="middle" x="395.4627" y="-13.8" font-family="Times,serif" font-size="14.00" fill="#000000">hugo</text>
</g>
<!-- aure&#45;&gt;hugo -->
<g id="edge17" class="edge">
<title>aure&#45;&gt;hugo</title>
<path fill="none" stroke="#000000" d="M242.3587,-78.5515C246.9713,-76.2815 251.8409,-73.988 256.4627,-72 299.4716,-53.5005 312.0854,-53.6185 355.4627,-36 357.6653,-35.1054 359.9256,-34.1613 362.1966,-33.193"/>
<polygon fill="#000000" stroke="#000000" points="363.7101,-36.3513 371.4739,-29.142 360.9088,-29.9363 363.7101,-36.3513"/>
</g>
<!-- pauline -->
<g id="node13" class="node">
<title>pauline</title>
<ellipse fill="none" stroke="#000000" cx="39.4627" cy="-18" rx="39.4254" ry="18"/>
<text text-anchor="middle" x="39.4627" y="-13.8" font-family="Times,serif" font-size="14.00" fill="#000000">pauline</text>
</g>
<!-- aure&#45;&gt;pauline -->
<g id="edge18" class="edge">
<title>aure&#45;&gt;pauline</title>
<path fill="none" stroke="#000000" d="M196.8001,-80.5873C166.932,-68.706 115.1188,-48.0953 79.1495,-33.787"/>
<polygon fill="#000000" stroke="#000000" points="80.0414,-30.3751 69.4559,-29.931 77.454,-36.8794 80.0414,-30.3751"/>
</g>
<!-- paul -->
<g id="node14" class="node">
<title>paul</title>
<ellipse fill="none" stroke="#000000" cx="124.4627" cy="-18" rx="27.8286" ry="18"/>
<text text-anchor="middle" x="124.4627" y="-13.8" font-family="Times,serif" font-size="14.00" fill="#000000">paul</text>
</g>
<!-- aure&#45;&gt;paul -->
<g id="edge19" class="edge">
<title>aure&#45;&gt;paul</title>
<path fill="none" stroke="#000000" d="M201.9529,-76.1177C187.4769,-65.2606 167.1582,-50.0216 150.9587,-37.872"/>
<polygon fill="#000000" stroke="#000000" points="153.0157,-35.0397 142.9156,-31.8397 148.8156,-40.6398 153.0157,-35.0397"/>
</g>
<!-- megane -->
<g id="node15" class="node">
<title>megane</title>
<ellipse fill="none" stroke="#000000" cx="211.4627" cy="-18" rx="41.1316" ry="18"/>
<text text-anchor="middle" x="211.4627" y="-13.8" font-family="Times,serif" font-size="14.00" fill="#000000">megane</text>
</g>
<!-- aure&#45;&gt;megane -->
<g id="edge20" class="edge">
<title>aure&#45;&gt;megane</title>
<path fill="none" stroke="#000000" d="M218.1916,-71.8314C217.2291,-64.131 216.0845,-54.9743 215.0148,-46.4166"/>
<polygon fill="#000000" stroke="#000000" points="218.4778,-45.9019 213.7643,-36.4133 211.5318,-46.7702 218.4778,-45.9019"/>
</g>
<!-- melanie -->
<g id="node17" class="node">
<title>melanie</title>
<ellipse fill="none" stroke="#000000" cx="485.4627" cy="-18" rx="41.7095" ry="18"/>
<text text-anchor="middle" x="485.4627" y="-13.8" font-family="Times,serif" font-size="14.00" fill="#000000">melanie</text>
</g>
<!-- charlotte&#45;&gt;melanie -->
<g id="edge22" class="edge">
<title>charlotte&#45;&gt;melanie</title>
<path fill="none" stroke="#000000" d="M485.4627,-71.8314C485.4627,-64.131 485.4627,-54.9743 485.4627,-46.4166"/>
<polygon fill="#000000" stroke="#000000" points="488.9628,-46.4132 485.4627,-36.4133 481.9628,-46.4133 488.9628,-46.4132"/>
</g>
<!-- antoine -->
<g id="node19" class="node">
<title>antoine</title>
<ellipse fill="none" stroke="#000000" cx="584.4627" cy="-18" rx="39.4254" ry="18"/>
<text text-anchor="middle" x="584.4627" y="-13.8" font-family="Times,serif" font-size="14.00" fill="#000000">antoine</text>
</g>
<!-- charlotte&#45;&gt;antoine -->
<g id="edge24" class="edge">
<title>charlotte&#45;&gt;antoine</title>
<path fill="none" stroke="#000000" d="M507.434,-74.0209C521.4688,-63.8137 539.8328,-50.4581 555.1098,-39.3476"/>
<polygon fill="#000000" stroke="#000000" points="557.2035,-42.1526 563.2323,-33.4403 553.0863,-36.4915 557.2035,-42.1526"/>
</g>
<!-- pierre -->
<g id="node10" class="node">
<title>pierre</title>
<ellipse fill="none" stroke="#000000" cx="299.4627" cy="-90" rx="33.6034" ry="18"/>
<text text-anchor="middle" x="299.4627" y="-85.8" font-family="Times,serif" font-size="14.00" fill="#000000">pierre</text>
</g>
<!-- pierre&#45;&gt;samuel -->
<g id="edge11" class="edge">
<title>pierre&#45;&gt;samuel</title>
<path fill="none" stroke="#000000" d="M301.7338,-71.8314C302.6963,-64.131 303.8409,-54.9743 304.9106,-46.4166"/>
<polygon fill="#000000" stroke="#000000" points="308.3936,-46.7702 306.161,-36.4133 301.4476,-45.9019 308.3936,-46.7702"/>
</g>
<!-- pierre&#45;&gt;hugo -->
<g id="edge12" class="edge">
<title>pierre&#45;&gt;hugo</title>
<path fill="none" stroke="#000000" d="M319.354,-75.0816C333.5336,-64.4468 352.7662,-50.0224 368.3498,-38.3347"/>
<polygon fill="#000000" stroke="#000000" points="370.6767,-40.9645 376.5767,-32.1645 366.4767,-35.3645 370.6767,-40.9645"/>
</g>
<!-- pierre&#45;&gt;pauline -->
<g id="edge13" class="edge">
<title>pierre&#45;&gt;pauline</title>
<path fill="none" stroke="#000000" d="M273.9996,-78.1439C268.6123,-75.9035 262.9078,-73.725 257.4627,-72 183.8376,-48.6764 161.606,-57.6197 87.4627,-36 84.6591,-35.1825 81.7857,-34.2789 78.9063,-33.3246"/>
<polygon fill="#000000" stroke="#000000" points="79.7817,-29.9232 69.1869,-29.9366 77.4776,-36.5332 79.7817,-29.9232"/>
</g>
<!-- pierre&#45;&gt;paul -->
<g id="edge14" class="edge">
<title>pierre&#45;&gt;paul</title>
<path fill="none" stroke="#000000" d="M273.3272,-78.5785C268.0913,-76.3527 262.6159,-74.0692 257.4627,-72 215.1763,-55.0204 203.3304,-53.9871 161.4627,-36 159.6414,-35.2175 157.7801,-34.3932 155.9091,-33.5453"/>
<polygon fill="#000000" stroke="#000000" points="157.1515,-30.2624 146.6107,-29.1935 154.1843,-36.6024 157.1515,-30.2624"/>
</g>
<!-- pierre&#45;&gt;megane -->
<g id="edge15" class="edge">
<title>pierre&#45;&gt;megane</title>
<path fill="none" stroke="#000000" d="M280.8002,-74.7307C268.6837,-64.8172 252.6787,-51.7222 239.0988,-40.6114"/>
<polygon fill="#000000" stroke="#000000" points="240.9692,-37.6194 231.0132,-33.9959 236.5365,-43.0372 240.9692,-37.6194"/>
</g>
<!-- eric -->
<g id="node16" class="node">
<title>eric</title>
<ellipse fill="none" stroke="#000000" cx="395.4627" cy="-90" rx="27" ry="18"/>
<text text-anchor="middle" x="395.4627" y="-85.8" font-family="Times,serif" font-size="14.00" fill="#000000">eric</text>
</g>
<!-- eric&#45;&gt;melanie -->
<g id="edge21" class="edge">
<title>eric&#45;&gt;melanie</title>
<path fill="none" stroke="#000000" d="M412.8156,-76.1177C425.4547,-66.0064 442.8446,-52.0945 457.4415,-40.417"/>
<polygon fill="#000000" stroke="#000000" points="460.0339,-42.8253 465.6561,-33.8453 455.661,-37.3592 460.0339,-42.8253"/>
</g>
<!-- didier -->
<g id="node18" class="node">
<title>didier</title>
<ellipse fill="none" stroke="#000000" cx="584.4627" cy="-90" rx="33.6247" ry="18"/>
<text text-anchor="middle" x="584.4627" y="-85.8" font-family="Times,serif" font-size="14.00" fill="#000000">didier</text>
</g>
<!-- didier&#45;&gt;antoine -->
<g id="edge23" class="edge">
<title>didier&#45;&gt;antoine</title>
<path fill="none" stroke="#000000" d="M584.4627,-71.8314C584.4627,-64.131 584.4627,-54.9743 584.4627,-46.4166"/>
<polygon fill="#000000" stroke="#000000" points="587.9628,-46.4132 584.4627,-36.4133 580.9628,-46.4133 587.9628,-46.4132"/>
</g>
<!-- aurelien -->
<g id="node20" class="node">
<title>aurelien</title>
<ellipse fill="none" stroke="#000000" cx="1070.4627" cy="-234" rx="42.2719" ry="18"/>
<text text-anchor="middle" x="1070.4627" y="-229.8" font-family="Times,serif" font-size="14.00" fill="#000000">aurelien</text>
</g>
<!-- emmanuel -->
<g id="node22" class="node">
<title>emmanuel</title>
<ellipse fill="none" stroke="#000000" cx="1067.4627" cy="-162" rx="51.0242" ry="18"/>
<text text-anchor="middle" x="1067.4627" y="-157.8" font-family="Times,serif" font-size="14.00" fill="#000000">emmanuel</text>
</g>
<!-- aurelien&#45;&gt;emmanuel -->
<g id="edge25" class="edge">
<title>aurelien&#45;&gt;emmanuel</title>
<path fill="none" stroke="#000000" d="M1069.7057,-215.8314C1069.3848,-208.131 1069.0033,-198.9743 1068.6467,-190.4166"/>
<polygon fill="#000000" stroke="#000000" points="1072.1433,-190.2589 1068.2299,-180.4133 1065.1493,-190.5503 1072.1433,-190.2589"/>
</g>
<!-- melodie -->
<g id="node21" class="node">
<title>melodie</title>
<ellipse fill="none" stroke="#000000" cx="1172.4627" cy="-234" rx="42.2932" ry="18"/>
<text text-anchor="middle" x="1172.4627" y="-229.8" font-family="Times,serif" font-size="14.00" fill="#000000">melodie</text>
</g>
<!-- melodie&#45;&gt;emmanuel -->
<g id="edge26" class="edge">
<title>melodie&#45;&gt;emmanuel</title>
<path fill="none" stroke="#000000" d="M1149.9376,-218.5542C1135.2947,-208.5134 1115.9733,-195.2644 1099.7127,-184.1143"/>
<polygon fill="#000000" stroke="#000000" points="1101.2698,-180.9382 1091.0431,-178.1694 1097.311,-186.7113 1101.2698,-180.9382"/>
</g>
<!-- oscar -->
<g id="node47" class="node">
<title>oscar</title>
<ellipse fill="none" stroke="#000000" cx="938.4627" cy="-90" rx="31.3179" ry="18"/>
<text text-anchor="middle" x="938.4627" y="-85.8" font-family="Times,serif" font-size="14.00" fill="#000000">oscar</text>
</g>
<!-- emmanuel&#45;&gt;oscar -->
<g id="edge54" class="edge">
<title>emmanuel&#45;&gt;oscar</title>
<path fill="none" stroke="#000000" d="M1040.1051,-146.7307C1019.5261,-135.2447 991.2951,-119.4879 969.8071,-107.4945"/>
<polygon fill="#000000" stroke="#000000" points="971.4905,-104.4259 961.0527,-102.6084 968.0789,-110.5383 971.4905,-104.4259"/>
</g>
<!-- jaques -->
<g id="node23" class="node">
<title>jaques</title>
<ellipse fill="none" stroke="#000000" cx="882.4627" cy="-234" rx="35.9135" ry="18"/>
<text text-anchor="middle" x="882.4627" y="-229.8" font-family="Times,serif" font-size="14.00" fill="#000000">jaques</text>
</g>
<!-- caroline -->
<g id="node25" class="node">
<title>caroline</title>
<ellipse fill="none" stroke="#000000" cx="938.4627" cy="-162" rx="42.2719" ry="18"/>
<text text-anchor="middle" x="938.4627" y="-157.8" font-family="Times,serif" font-size="14.00" fill="#000000">caroline</text>
</g>
<!-- jaques&#45;&gt;caroline -->
<g id="edge27" class="edge">
<title>jaques&#45;&gt;caroline</title>
<path fill="none" stroke="#000000" d="M895.7339,-216.937C902.5382,-208.1886 910.9648,-197.3545 918.5317,-187.6256"/>
<polygon fill="#000000" stroke="#000000" points="921.521,-189.483 924.8977,-179.4407 915.9955,-185.1854 921.521,-189.483"/>
</g>
<!-- aurelie -->
<g id="node24" class="node">
<title>aurelie</title>
<ellipse fill="none" stroke="#000000" cx="973.4627" cy="-234" rx="37.1155" ry="18"/>
<text text-anchor="middle" x="973.4627" y="-229.8" font-family="Times,serif" font-size="14.00" fill="#000000">aurelie</text>
</g>
<!-- aurelie&#45;&gt;caroline -->
<g id="edge28" class="edge">
<title>aurelie&#45;&gt;caroline</title>
<path fill="none" stroke="#000000" d="M964.811,-216.2022C960.8146,-207.981 955.9826,-198.041 951.5537,-188.9301"/>
<polygon fill="#000000" stroke="#000000" points="954.6559,-187.306 947.1362,-179.8425 948.3603,-190.3664 954.6559,-187.306"/>
</g>
<!-- caroline&#45;&gt;oscar -->
<g id="edge53" class="edge">
<title>caroline&#45;&gt;oscar</title>
<path fill="none" stroke="#000000" d="M938.4627,-143.8314C938.4627,-136.131 938.4627,-126.9743 938.4627,-118.4166"/>
<polygon fill="#000000" stroke="#000000" points="941.9628,-118.4132 938.4627,-108.4133 934.9628,-118.4133 941.9628,-118.4132"/>
</g>
<!-- franc -->
<g id="node26" class="node">
<title>franc</title>
<ellipse fill="none" stroke="#000000" cx="697.4627" cy="-234" rx="30.7366" ry="18"/>
<text text-anchor="middle" x="697.4627" y="-229.8" font-family="Times,serif" font-size="14.00" fill="#000000">franc</text>
</g>
<!-- florent -->
<g id="node28" class="node">
<title>florent</title>
<ellipse fill="none" stroke="#000000" cx="813.4627" cy="-162" rx="36.5555" ry="18"/>
<text text-anchor="middle" x="813.4627" y="-157.8" font-family="Times,serif" font-size="14.00" fill="#000000">florent</text>
</g>
<!-- franc&#45;&gt;florent -->
<g id="edge29" class="edge">
<title>franc&#45;&gt;florent</title>
<path fill="none" stroke="#000000" d="M718.7389,-220.7941C736.4012,-209.8312 761.7821,-194.0776 781.8266,-181.6362"/>
<polygon fill="#000000" stroke="#000000" points="783.6817,-184.6042 790.3323,-176.3568 779.9901,-178.6567 783.6817,-184.6042"/>
</g>
<!-- beatrice -->
<g id="node27" class="node">
<title>beatrice</title>
<ellipse fill="none" stroke="#000000" cx="787.4627" cy="-234" rx="41.6882" ry="18"/>
<text text-anchor="middle" x="787.4627" y="-229.8" font-family="Times,serif" font-size="14.00" fill="#000000">beatrice</text>
</g>
<!-- beatrice&#45;&gt;florent -->
<g id="edge30" class="edge">
<title>beatrice&#45;&gt;florent</title>
<path fill="none" stroke="#000000" d="M793.8897,-216.2022C796.7959,-208.1541 800.297,-198.4588 803.5297,-189.5067"/>
<polygon fill="#000000" stroke="#000000" points="806.915,-190.4369 807.0195,-179.8425 800.3311,-188.0593 806.915,-190.4369"/>
</g>
<!-- jeanne -->
<g id="node46" class="node">
<title>jeanne</title>
<ellipse fill="none" stroke="#000000" cx="1024.4627" cy="-90" rx="36.4761" ry="18"/>
<text text-anchor="middle" x="1024.4627" y="-85.8" font-family="Times,serif" font-size="14.00" fill="#000000">jeanne</text>
</g>
<!-- florent&#45;&gt;jeanne -->
<g id="edge51" class="edge">
<title>florent&#45;&gt;jeanne</title>
<path fill="none" stroke="#000000" d="M844.6605,-152.37C877.9731,-141.9522 932.2219,-124.5987 978.4627,-108 981.0229,-107.081 983.6548,-106.1134 986.3014,-105.1233"/>
<polygon fill="#000000" stroke="#000000" points="987.7488,-108.3174 995.8477,-101.4866 985.2568,-101.776 987.7488,-108.3174"/>
</g>
<!-- dominic -->
<g id="node29" class="node">
<title>dominic</title>
<ellipse fill="none" stroke="#000000" cx="1385.4627" cy="-234" rx="42.8771" ry="18"/>
<text text-anchor="middle" x="1385.4627" y="-229.8" font-family="Times,serif" font-size="14.00" fill="#000000">dominic</text>
</g>
<!-- mireille -->
<g id="node31" class="node">
<title>mireille</title>
<ellipse fill="none" stroke="#000000" cx="1284.4627" cy="-162" rx="41.1432" ry="18"/>
<text text-anchor="middle" x="1284.4627" y="-157.8" font-family="Times,serif" font-size="14.00" fill="#000000">mireille</text>
</g>
<!-- dominic&#45;&gt;mireille -->
<g id="edge31" class="edge">
<title>dominic&#45;&gt;mireille</title>
<path fill="none" stroke="#000000" d="M1363.5472,-218.3771C1349.1553,-208.1175 1330.1449,-194.5656 1314.3697,-183.3199"/>
<polygon fill="#000000" stroke="#000000" points="1316.1629,-180.2999 1305.9884,-177.3451 1312.0996,-185.9999 1316.1629,-180.2999"/>
</g>
<!-- simon -->
<g id="node32" class="node">
<title>simon</title>
<ellipse fill="none" stroke="#000000" cx="1388.4627" cy="-162" rx="34.7903" ry="18"/>
<text text-anchor="middle" x="1388.4627" y="-157.8" font-family="Times,serif" font-size="14.00" fill="#000000">simon</text>
</g>
<!-- dominic&#45;&gt;simon -->
<g id="edge32" class="edge">
<title>dominic&#45;&gt;simon</title>
<path fill="none" stroke="#000000" d="M1386.2197,-215.8314C1386.5406,-208.131 1386.9221,-198.9743 1387.2787,-190.4166"/>
<polygon fill="#000000" stroke="#000000" points="1390.776,-190.5503 1387.6955,-180.4133 1383.7821,-190.2589 1390.776,-190.5503"/>
</g>
<!-- severine -->
<g id="node30" class="node">
<title>severine</title>
<ellipse fill="none" stroke="#000000" cx="1281.4627" cy="-234" rx="43.4163" ry="18"/>
<text text-anchor="middle" x="1281.4627" y="-229.8" font-family="Times,serif" font-size="14.00" fill="#000000">severine</text>
</g>
<!-- severine&#45;&gt;mireille -->
<g id="edge33" class="edge">
<title>severine&#45;&gt;mireille</title>
<path fill="none" stroke="#000000" d="M1282.2197,-215.8314C1282.5406,-208.131 1282.9221,-198.9743 1283.2787,-190.4166"/>
<polygon fill="#000000" stroke="#000000" points="1286.776,-190.5503 1283.6955,-180.4133 1279.7821,-190.2589 1286.776,-190.5503"/>
</g>
<!-- severine&#45;&gt;simon -->
<g id="edge34" class="edge">
<title>severine&#45;&gt;simon</title>
<path fill="none" stroke="#000000" d="M1304.4169,-218.5542C1320.2089,-207.9278 1341.3409,-193.7081 1358.4642,-182.1859"/>
<polygon fill="#000000" stroke="#000000" points="1360.661,-184.9263 1367.0036,-176.4397 1356.7531,-179.1187 1360.661,-184.9263"/>
</g>
<!-- luc -->
<g id="node42" class="node">
<title>luc</title>
<ellipse fill="none" stroke="#000000" cx="1274.4627" cy="-90" rx="27" ry="18"/>
<text text-anchor="middle" x="1274.4627" y="-85.8" font-family="Times,serif" font-size="14.00" fill="#000000">luc</text>
</g>
<!-- mireille&#45;&gt;luc -->
<g id="edge45" class="edge">
<title>mireille&#45;&gt;luc</title>
<path fill="none" stroke="#000000" d="M1281.9393,-143.8314C1280.8698,-136.131 1279.598,-126.9743 1278.4094,-118.4166"/>
<polygon fill="#000000" stroke="#000000" points="1281.8626,-117.8367 1277.0201,-108.4133 1274.9291,-118.7997 1281.8626,-117.8367"/>
</g>
<!-- frederic -->
<g id="node43" class="node">
<title>frederic</title>
<ellipse fill="none" stroke="#000000" cx="1447.4627" cy="-90" rx="41.1064" ry="18"/>
<text text-anchor="middle" x="1447.4627" y="-85.8" font-family="Times,serif" font-size="14.00" fill="#000000">frederic</text>
</g>
<!-- mireille&#45;&gt;frederic -->
<g id="edge46" class="edge">
<title>mireille&#45;&gt;frederic</title>
<path fill="none" stroke="#000000" d="M1313.6038,-149.1278C1340.1774,-137.3898 1379.6298,-119.963 1408.8251,-107.0669"/>
<polygon fill="#000000" stroke="#000000" points="1410.5664,-110.1241 1418.2995,-102.8819 1407.7379,-103.7209 1410.5664,-110.1241"/>
</g>
<!-- mireille&#45;&gt;jeanne -->
<g id="edge52" class="edge">
<title>mireille&#45;&gt;jeanne</title>
<path fill="none" stroke="#000000" d="M1253.1409,-150.216C1246.9836,-148.0438 1240.5468,-145.8729 1234.4627,-144 1177.1728,-126.3646 1109.9045,-109.7756 1067.2364,-99.7543"/>
<polygon fill="#000000" stroke="#000000" points="1068.0004,-96.3386 1057.4665,-97.4736 1066.409,-103.1554 1068.0004,-96.3386"/>
</g>
<!-- lisa -->
<g id="node44" class="node">
<title>lisa</title>
<ellipse fill="none" stroke="#000000" cx="1791.4627" cy="-90" rx="27" ry="18"/>
<text text-anchor="middle" x="1791.4627" y="-85.8" font-family="Times,serif" font-size="14.00" fill="#000000">lisa</text>
</g>
<!-- simon&#45;&gt;lisa -->
<g id="edge47" class="edge">
<title>simon&#45;&gt;lisa</title>
<path fill="none" stroke="#000000" d="M1415.5128,-150.5312C1422.2556,-148.0428 1429.5393,-145.6618 1436.4627,-144 1575.1998,-110.6989 1618.6618,-148.5272 1755.4627,-108 1757.3722,-107.4343 1759.3027,-106.7715 1761.2258,-106.0402"/>
<polygon fill="#000000" stroke="#000000" points="1762.8728,-109.1408 1770.6495,-101.9454 1760.083,-102.7207 1762.8728,-109.1408"/>
</g>
<!-- alain -->
<g id="node45" class="node">
<title>alain</title>
<ellipse fill="none" stroke="#000000" cx="1536.4627" cy="-90" rx="29.6127" ry="18"/>
<text text-anchor="middle" x="1536.4627" y="-85.8" font-family="Times,serif" font-size="14.00" fill="#000000">alain</text>
</g>
<!-- simon&#45;&gt;alain -->
<g id="edge48" class="edge">
<title>simon&#45;&gt;alain</title>
<path fill="none" stroke="#000000" d="M1413.9048,-149.6228C1438.7455,-137.5381 1476.6562,-119.095 1503.7315,-105.9233"/>
<polygon fill="#000000" stroke="#000000" points="1505.3561,-109.0252 1512.8173,-101.5032 1502.2938,-102.7306 1505.3561,-109.0252"/>
</g>
<!-- olivier -->
<g id="node33" class="node">
<title>olivier</title>
<ellipse fill="none" stroke="#000000" cx="1572.4627" cy="-234" rx="36.4936" ry="18"/>
<text text-anchor="middle" x="1572.4627" y="-229.8" font-family="Times,serif" font-size="14.00" fill="#000000">olivier</text>
</g>
<!-- edith -->
<g id="node35" class="node">
<title>edith</title>
<ellipse fill="none" stroke="#000000" cx="1569.4627" cy="-162" rx="30.1958" ry="18"/>
<text text-anchor="middle" x="1569.4627" y="-157.8" font-family="Times,serif" font-size="14.00" fill="#000000">edith</text>
</g>
<!-- olivier&#45;&gt;edith -->
<g id="edge35" class="edge">
<title>olivier&#45;&gt;edith</title>
<path fill="none" stroke="#000000" d="M1571.7057,-215.8314C1571.3848,-208.131 1571.0033,-198.9743 1570.6467,-190.4166"/>
<polygon fill="#000000" stroke="#000000" points="1574.1433,-190.2589 1570.2299,-180.4133 1567.1493,-190.5503 1574.1433,-190.2589"/>
</g>
<!-- xavier -->
<g id="node36" class="node">
<title>xavier</title>
<ellipse fill="none" stroke="#000000" cx="1480.4627" cy="-162" rx="35.3315" ry="18"/>
<text text-anchor="middle" x="1480.4627" y="-157.8" font-family="Times,serif" font-size="14.00" fill="#000000">xavier</text>
</g>
<!-- olivier&#45;&gt;xavier -->
<g id="edge36" class="edge">
<title>olivier&#45;&gt;xavier</title>
<path fill="none" stroke="#000000" d="M1552.9519,-218.7307C1539.9006,-208.5166 1522.5338,-194.9252 1508.0708,-183.6064"/>
<polygon fill="#000000" stroke="#000000" points="1509.9776,-180.6542 1499.9454,-177.2473 1505.6634,-186.1667 1509.9776,-180.6542"/>
</g>
<!-- helene -->
<g id="node34" class="node">
<title>helene</title>
<ellipse fill="none" stroke="#000000" cx="1482.4627" cy="-234" rx="36.4761" ry="18"/>
<text text-anchor="middle" x="1482.4627" y="-229.8" font-family="Times,serif" font-size="14.00" fill="#000000">helene</text>
</g>
<!-- helene&#45;&gt;edith -->
<g id="edge37" class="edge">
<title>helene&#45;&gt;edith</title>
<path fill="none" stroke="#000000" d="M1501.3404,-218.3771C1513.6734,-208.1705 1529.9436,-194.7055 1543.4904,-183.4943"/>
<polygon fill="#000000" stroke="#000000" points="1546.0413,-185.9264 1551.5137,-176.8543 1541.5783,-180.5336 1546.0413,-185.9264"/>
</g>
<!-- helene&#45;&gt;xavier -->
<g id="edge38" class="edge">
<title>helene&#45;&gt;xavier</title>
<path fill="none" stroke="#000000" d="M1481.958,-215.8314C1481.7441,-208.131 1481.4898,-198.9743 1481.252,-190.4166"/>
<polygon fill="#000000" stroke="#000000" points="1484.7506,-190.3122 1480.9742,-180.4133 1477.7533,-190.5066 1484.7506,-190.3122"/>
</g>
<!-- edith&#45;&gt;lisa -->
<g id="edge49" class="edge">
<title>edith&#45;&gt;lisa</title>
<path fill="none" stroke="#000000" d="M1598.0374,-155.4156C1635.0138,-146.5095 1701.1369,-129.265 1755.4627,-108 1757.3172,-107.2741 1759.2049,-106.4867 1761.0956,-105.6606"/>
<polygon fill="#000000" stroke="#000000" points="1762.845,-108.7068 1770.432,-101.3116 1759.8893,-102.3614 1762.845,-108.7068"/>
</g>
<!-- edith&#45;&gt;alain -->
<g id="edge50" class="edge">
<title>edith&#45;&gt;alain</title>
<path fill="none" stroke="#000000" d="M1561.4743,-144.5708C1557.6518,-136.2309 1552.9901,-126.0598 1548.7316,-116.7686"/>
<polygon fill="#000000" stroke="#000000" points="1551.8402,-115.1506 1544.4919,-107.5182 1545.4768,-118.0672 1551.8402,-115.1506"/>
</g>
<!-- xavier&#45;&gt;luc -->
<g id="edge43" class="edge">
<title>xavier&#45;&gt;luc</title>
<path fill="none" stroke="#000000" d="M1452.4065,-151.1055C1445.8902,-148.6792 1438.9592,-146.1816 1432.4627,-144 1379.2741,-126.1389 1363.7533,-128.3406 1311.4627,-108 1309.4072,-107.2004 1307.3093,-106.3319 1305.2092,-105.4227"/>
<polygon fill="#000000" stroke="#000000" points="1306.6616,-102.2383 1296.1117,-101.2636 1303.7511,-108.6046 1306.6616,-102.2383"/>
</g>
<!-- xavier&#45;&gt;frederic -->
<g id="edge44" class="edge">
<title>xavier&#45;&gt;frederic</title>
<path fill="none" stroke="#000000" d="M1472.3054,-144.2022C1468.577,-136.0675 1464.0773,-126.2501 1459.9377,-117.2181"/>
<polygon fill="#000000" stroke="#000000" points="1462.9889,-115.4749 1455.6405,-107.8425 1456.6254,-118.3915 1462.9889,-115.4749"/>
</g>
<!-- lucas -->
<g id="node37" class="node">
<title>lucas</title>
<ellipse fill="none" stroke="#000000" cx="727.4627" cy="-162" rx="30.7558" ry="18"/>
<text text-anchor="middle" x="727.4627" y="-157.8" font-family="Times,serif" font-size="14.00" fill="#000000">lucas</text>
</g>
<!-- anne -->
<g id="node39" class="node">
<title>anne</title>
<ellipse fill="none" stroke="#000000" cx="1181.4627" cy="-90" rx="29.0356" ry="18"/>
<text text-anchor="middle" x="1181.4627" y="-85.8" font-family="Times,serif" font-size="14.00" fill="#000000">anne</text>
</g>
<!-- lucas&#45;&gt;anne -->
<g id="edge39" class="edge">
<title>lucas&#45;&gt;anne</title>
<path fill="none" stroke="#000000" d="M750.7086,-150.1131C756.0951,-147.7632 761.886,-145.5479 767.4627,-144 897.7109,-107.8476 935.5939,-126.7283 1069.4627,-108 1093.9341,-104.5764 1121.3216,-100.1849 1142.8884,-96.5967"/>
<polygon fill="#000000" stroke="#000000" points="1143.6858,-100.012 1152.9699,-94.9075 1142.529,-93.1082 1143.6858,-100.012"/>
</g>
<!-- josephine -->
<g id="node41" class="node">
<title>josephine</title>
<ellipse fill="none" stroke="#000000" cx="684.4627" cy="-90" rx="48.0935" ry="18"/>
<text text-anchor="middle" x="684.4627" y="-85.8" font-family="Times,serif" font-size="14.00" fill="#000000">josephine</text>
</g>
<!-- lucas&#45;&gt;josephine -->
<g id="edge41" class="edge">
<title>lucas&#45;&gt;josephine</title>
<path fill="none" stroke="#000000" d="M717.2723,-144.937C712.1908,-136.4284 705.9309,-125.9468 700.246,-116.4279"/>
<polygon fill="#000000" stroke="#000000" points="703.1614,-114.4833 695.029,-107.6924 697.1515,-118.0725 703.1614,-114.4833"/>
</g>
<!-- antonine -->
<g id="node38" class="node">
<title>antonine</title>
<ellipse fill="none" stroke="#000000" cx="1181.4627" cy="-162" rx="44.0833" ry="18"/>
<text text-anchor="middle" x="1181.4627" y="-157.8" font-family="Times,serif" font-size="14.00" fill="#000000">antonine</text>
</g>
<!-- antonine&#45;&gt;anne -->
<g id="edge40" class="edge">
<title>antonine&#45;&gt;anne</title>
<path fill="none" stroke="#000000" d="M1181.4627,-143.8314C1181.4627,-136.131 1181.4627,-126.9743 1181.4627,-118.4166"/>
<polygon fill="#000000" stroke="#000000" points="1184.9628,-118.4132 1181.4627,-108.4133 1177.9628,-118.4133 1184.9628,-118.4132"/>
</g>
<!-- francoise -->
<g id="node59" class="node">
<title>francoise</title>
<ellipse fill="none" stroke="#000000" cx="1274.4627" cy="-18" rx="46.345" ry="18"/>
<text text-anchor="middle" x="1274.4627" y="-13.8" font-family="Times,serif" font-size="14.00" fill="#000000">francoise</text>
</g>
<!-- anne&#45;&gt;francoise -->
<g id="edge73" class="edge">
<title>anne&#45;&gt;francoise</title>
<path fill="none" stroke="#000000" d="M1199.8365,-75.7751C1212.8785,-65.6781 1230.6489,-51.9204 1245.5771,-40.363"/>
<polygon fill="#000000" stroke="#000000" points="1247.7655,-43.0952 1253.5301,-34.2059 1243.4802,-37.5601 1247.7655,-43.0952"/>
</g>
<!-- julie -->
<g id="node60" class="node">
<title>julie</title>
<ellipse fill="none" stroke="#000000" cx="1181.4627" cy="-18" rx="28.4069" ry="18"/>
<text text-anchor="middle" x="1181.4627" y="-13.8" font-family="Times,serif" font-size="14.00" fill="#000000">julie</text>
</g>
<!-- anne&#45;&gt;julie -->
<g id="edge74" class="edge">
<title>anne&#45;&gt;julie</title>
<path fill="none" stroke="#000000" d="M1181.4627,-71.8314C1181.4627,-64.131 1181.4627,-54.9743 1181.4627,-46.4166"/>
<polygon fill="#000000" stroke="#000000" points="1184.9628,-46.4132 1181.4627,-36.4133 1177.9628,-46.4133 1184.9628,-46.4132"/>
</g>
<!-- marion -->
<g id="node40" class="node">
<title>marion</title>
<ellipse fill="none" stroke="#000000" cx="640.4627" cy="-162" rx="38.2818" ry="18"/>
<text text-anchor="middle" x="640.4627" y="-157.8" font-family="Times,serif" font-size="14.00" fill="#000000">marion</text>
</g>
<!-- marion&#45;&gt;josephine -->
<g id="edge42" class="edge">
<title>marion&#45;&gt;josephine</title>
<path fill="none" stroke="#000000" d="M651.1139,-144.5708C656.2792,-136.1184 662.594,-125.7851 668.3336,-116.3931"/>
<polygon fill="#000000" stroke="#000000" points="671.3759,-118.1268 673.6039,-107.7689 665.4029,-114.4766 671.3759,-118.1268"/>
</g>
<!-- luc&#45;&gt;francoise -->
<g id="edge71" class="edge">
<title>luc&#45;&gt;francoise</title>
<path fill="none" stroke="#000000" d="M1274.4627,-71.8314C1274.4627,-64.131 1274.4627,-54.9743 1274.4627,-46.4166"/>
<polygon fill="#000000" stroke="#000000" points="1277.9628,-46.4132 1274.4627,-36.4133 1270.9628,-46.4133 1277.9628,-46.4132"/>
</g>
<!-- luc&#45;&gt;julie -->
<g id="edge72" class="edge">
<title>luc&#45;&gt;julie</title>
<path fill="none" stroke="#000000" d="M1256.5314,-76.1177C1242.7254,-65.4292 1223.4338,-50.4937 1207.8645,-38.4401"/>
<polygon fill="#000000" stroke="#000000" points="1209.7062,-35.4396 1199.6563,-32.0854 1205.4209,-40.9747 1209.7062,-35.4396"/>
</g>
<!-- claire -->
<g id="node57" class="node">
<title>claire</title>
<ellipse fill="none" stroke="#000000" cx="1448.4627" cy="-18" rx="32.4576" ry="18"/>
<text text-anchor="middle" x="1448.4627" y="-13.8" font-family="Times,serif" font-size="14.00" fill="#000000">claire</text>
</g>
<!-- frederic&#45;&gt;claire -->
<g id="edge67" class="edge">
<title>frederic&#45;&gt;claire</title>
<path fill="none" stroke="#000000" d="M1447.715,-71.8314C1447.822,-64.131 1447.9492,-54.9743 1448.068,-46.4166"/>
<polygon fill="#000000" stroke="#000000" points="1451.5676,-46.4609 1448.207,-36.4133 1444.5683,-46.3637 1451.5676,-46.4609"/>
</g>
<!-- jules -->
<g id="node58" class="node">
<title>jules</title>
<ellipse fill="none" stroke="#000000" cx="1368.4627" cy="-18" rx="29.0509" ry="18"/>
<text text-anchor="middle" x="1368.4627" y="-13.8" font-family="Times,serif" font-size="14.00" fill="#000000">jules</text>
</g>
<!-- frederic&#45;&gt;jules -->
<g id="edge68" class="edge">
<title>frederic&#45;&gt;jules</title>
<path fill="none" stroke="#000000" d="M1429.5364,-73.6621C1418.5572,-63.6558 1404.3704,-50.726 1392.4338,-39.8471"/>
<polygon fill="#000000" stroke="#000000" points="1394.7196,-37.1948 1384.9711,-33.0456 1390.0044,-42.3685 1394.7196,-37.1948"/>
</g>
<!-- louis -->
<g id="node53" class="node">
<title>louis</title>
<ellipse fill="none" stroke="#000000" cx="1752.4627" cy="-18" rx="29.6339" ry="18"/>
<text text-anchor="middle" x="1752.4627" y="-13.8" font-family="Times,serif" font-size="14.00" fill="#000000">louis</text>
</g>
<!-- lisa&#45;&gt;louis -->
<g id="edge64" class="edge">
<title>lisa&#45;&gt;louis</title>
<path fill="none" stroke="#000000" d="M1782.2202,-72.937C1777.6251,-64.4537 1771.9677,-54.0092 1766.8239,-44.513"/>
<polygon fill="#000000" stroke="#000000" points="1769.7501,-42.5666 1761.9097,-35.4407 1763.5951,-45.9006 1769.7501,-42.5666"/>
</g>
<!-- alexandre -->
<g id="node55" class="node">
<title>alexandre</title>
<ellipse fill="none" stroke="#000000" cx="1582.4627" cy="-18" rx="48.6346" ry="18"/>
<text text-anchor="middle" x="1582.4627" y="-13.8" font-family="Times,serif" font-size="14.00" fill="#000000">alexandre</text>
</g>
<!-- alain&#45;&gt;alexandre -->
<g id="edge65" class="edge">
<title>alain&#45;&gt;alexandre</title>
<path fill="none" stroke="#000000" d="M1547.364,-72.937C1552.8562,-64.3407 1559.6349,-53.7304 1565.7661,-44.1338"/>
<polygon fill="#000000" stroke="#000000" points="1568.7247,-46.0038 1571.1592,-35.6924 1562.8258,-42.235 1568.7247,-46.0038"/>
</g>
<!-- jean -->
<g id="node48" class="node">
<title>jean</title>
<ellipse fill="none" stroke="#000000" cx="1108.4627" cy="-18" rx="27.2447" ry="18"/>
<text text-anchor="middle" x="1108.4627" y="-13.8" font-family="Times,serif" font-size="14.00" fill="#000000">jean</text>
</g>
<!-- jeanne&#45;&gt;jean -->
<g id="edge59" class="edge">
<title>jeanne&#45;&gt;jean</title>
<path fill="none" stroke="#000000" d="M1042.6894,-74.3771C1054.757,-64.0335 1070.7287,-50.3434 1083.9113,-39.0441"/>
<polygon fill="#000000" stroke="#000000" points="1086.3842,-41.5343 1091.699,-32.3689 1081.8286,-36.2194 1086.3842,-41.5343"/>
</g>
<!-- elodie -->
<g id="node49" class="node">
<title>elodie</title>
<ellipse fill="none" stroke="#000000" cx="836.4627" cy="-18" rx="34.769" ry="18"/>
<text text-anchor="middle" x="836.4627" y="-13.8" font-family="Times,serif" font-size="14.00" fill="#000000">elodie</text>
</g>
<!-- jeanne&#45;&gt;elodie -->
<g id="edge60" class="edge">
<title>jeanne&#45;&gt;elodie</title>
<path fill="none" stroke="#000000" d="M995.7888,-78.6729C990.0582,-76.4393 984.0756,-74.1288 978.4627,-72 935.0771,-55.5448 923.7209,-52.7873 880.4627,-36 878.1063,-35.0856 875.684,-34.1323 873.2453,-33.1626"/>
<polygon fill="#000000" stroke="#000000" points="874.4464,-29.8732 863.8627,-29.3884 871.834,-36.3675 874.4464,-29.8732"/>
</g>
<!-- monica -->
<g id="node50" class="node">
<title>monica</title>
<ellipse fill="none" stroke="#000000" cx="928.4627" cy="-18" rx="39.4254" ry="18"/>
<text text-anchor="middle" x="928.4627" y="-13.8" font-family="Times,serif" font-size="14.00" fill="#000000">monica</text>
</g>
<!-- jeanne&#45;&gt;monica -->
<g id="edge61" class="edge">
<title>jeanne&#45;&gt;monica</title>
<path fill="none" stroke="#000000" d="M1004.1036,-74.7307C990.4505,-64.4908 972.2714,-50.8565 957.1569,-39.5206"/>
<polygon fill="#000000" stroke="#000000" points="959.2235,-36.6956 949.1234,-33.4956 955.0234,-42.2956 959.2235,-36.6956"/>
</g>
<!-- brigitte -->
<g id="node51" class="node">
<title>brigitte</title>
<ellipse fill="none" stroke="#000000" cx="1024.4627" cy="-18" rx="38.8594" ry="18"/>
<text text-anchor="middle" x="1024.4627" y="-13.8" font-family="Times,serif" font-size="14.00" fill="#000000">brigitte</text>
</g>
<!-- jeanne&#45;&gt;brigitte -->
<g id="edge62" class="edge">
<title>jeanne&#45;&gt;brigitte</title>
<path fill="none" stroke="#000000" d="M1024.4627,-71.8314C1024.4627,-64.131 1024.4627,-54.9743 1024.4627,-46.4166"/>
<polygon fill="#000000" stroke="#000000" points="1027.9628,-46.4132 1024.4627,-36.4133 1020.9628,-46.4133 1027.9628,-46.4132"/>
</g>
<!-- oscar&#45;&gt;jean -->
<g id="edge55" class="edge">
<title>oscar&#45;&gt;jean</title>
<path fill="none" stroke="#000000" d="M963.5394,-78.7806C968.7824,-76.494 974.2891,-74.1358 979.4627,-72 1020.431,-55.0873 1031.9295,-53.9306 1072.4627,-36 1074.236,-35.2155 1076.0479,-34.3896 1077.8691,-33.5405"/>
<polygon fill="#000000" stroke="#000000" points="1079.4252,-36.6759 1086.9182,-29.1855 1076.3896,-30.3684 1079.4252,-36.6759"/>
</g>
<!-- oscar&#45;&gt;elodie -->
<g id="edge56" class="edge">
<title>oscar&#45;&gt;elodie</title>
<path fill="none" stroke="#000000" d="M918.3108,-75.7751C903.2809,-65.1658 882.5255,-50.5149 865.6767,-38.6217"/>
<polygon fill="#000000" stroke="#000000" points="867.4611,-35.5971 857.273,-32.6896 863.4243,-41.3159 867.4611,-35.5971"/>
</g>
<!-- oscar&#45;&gt;monica -->
<g id="edge57" class="edge">
<title>oscar&#45;&gt;monica</title>
<path fill="none" stroke="#000000" d="M935.9393,-71.8314C934.8698,-64.131 933.598,-54.9743 932.4094,-46.4166"/>
<polygon fill="#000000" stroke="#000000" points="935.8626,-45.8367 931.0201,-36.4133 928.9291,-46.7997 935.8626,-45.8367"/>
</g>
<!-- oscar&#45;&gt;brigitte -->
<g id="edge58" class="edge">
<title>oscar&#45;&gt;brigitte</title>
<path fill="none" stroke="#000000" d="M956.2819,-75.0816C968.1789,-65.1213 984.0465,-51.8368 997.4804,-40.5898"/>
<polygon fill="#000000" stroke="#000000" points="1000.0524,-43.0013 1005.4732,-33.8982 995.5588,-37.6339 1000.0524,-43.0013"/>
</g>
<!-- vincent -->
<g id="node52" class="node">
<title>vincent</title>
<ellipse fill="none" stroke="#000000" cx="1707.4627" cy="-90" rx="39.4254" ry="18"/>
<text text-anchor="middle" x="1707.4627" y="-85.8" font-family="Times,serif" font-size="14.00" fill="#000000">vincent</text>
</g>
<!-- vincent&#45;&gt;louis -->
<g id="edge63" class="edge">
<title>vincent&#45;&gt;louis</title>
<path fill="none" stroke="#000000" d="M1718.3559,-72.5708C1723.7176,-63.9922 1730.29,-53.4762 1736.2295,-43.9732"/>
<polygon fill="#000000" stroke="#000000" points="1739.3377,-45.6037 1741.6698,-35.2687 1733.4017,-41.8937 1739.3377,-45.6037"/>
</g>
<!-- marie -->
<g id="node54" class="node">
<title>marie</title>
<ellipse fill="none" stroke="#000000" cx="1617.4627" cy="-90" rx="33.0411" ry="18"/>
<text text-anchor="middle" x="1617.4627" y="-85.8" font-family="Times,serif" font-size="14.00" fill="#000000">marie</text>
</g>
<!-- marie&#45;&gt;alexandre -->
<g id="edge66" class="edge">
<title>marie&#45;&gt;alexandre</title>
<path fill="none" stroke="#000000" d="M1608.9902,-72.5708C1604.9661,-64.2927 1600.065,-54.2104 1595.5756,-44.9752"/>
<polygon fill="#000000" stroke="#000000" points="1598.6201,-43.2324 1591.1003,-35.7689 1592.3245,-46.2928 1598.6201,-43.2324"/>
</g>
<!-- louise -->
<g id="node56" class="node">
<title>louise</title>
<ellipse fill="none" stroke="#000000" cx="1354.4627" cy="-90" rx="34.2065" ry="18"/>
<text text-anchor="middle" x="1354.4627" y="-85.8" font-family="Times,serif" font-size="14.00" fill="#000000">louise</text>
</g>
<!-- louise&#45;&gt;claire -->
<g id="edge69" class="edge">
<title>louise&#45;&gt;claire</title>
<path fill="none" stroke="#000000" d="M1373.9396,-75.0816C1387.6423,-64.5858 1406.1642,-50.3989 1421.3145,-38.7944"/>
<polygon fill="#000000" stroke="#000000" points="1423.5219,-41.5124 1429.3324,-32.653 1419.2653,-35.9552 1423.5219,-41.5124"/>
</g>
<!-- louise&#45;&gt;jules -->
<g id="edge70" class="edge">
<title>louise&#45;&gt;jules</title>
<path fill="none" stroke="#000000" d="M1357.9955,-71.8314C1359.5325,-63.9266 1361.3679,-54.4872 1363.0695,-45.7365"/>
<polygon fill="#000000" stroke="#000000" points="1366.5064,-46.3976 1364.9795,-35.9134 1359.6351,-45.0615 1366.5064,-46.3976"/>
</g>
</g>
</svg>
